<svg version="1.1" xmlns="http://www.w3.org/2000/svg" x="0" y="0" width="286.336" height="92.779" viewBox="0 0 286.336 92.779"> <path fill="#329AC7" d="M10.722 75.27l-1.625 4.549c-0.163 0.379-0.434 0.542-0.812 0.542H0.648c-0.542 0-0.758-0.326-0.595-0.812L7.688 58.86c2.004-5.524 3.792-10.832 5.146-16.302 0.108-0.379 0.379-0.595 0.812-0.595h10.072c0.434 0 0.705 0.216 0.812 0.595 1.354 5.47 3.141 10.777 5.144 16.302l7.637 20.688c0.163 0.486-0.055 0.812-0.595 0.812h-7.636c-0.379 0-0.65-0.163-0.813-0.542l-1.625-4.549H10.722zM23.124 65.467c-1.572-4.277-3.305-9.368-3.954-12.889 -0.163-0.649-0.812-0.649-0.976 0 -0.703 3.521-2.383 8.557-3.953 12.889l-0.757 2.166h10.397L23.124 65.467zM44.976 55.395c0.542 0.812 0.867 0.758 1.68 0.055 2.167-1.843 4.657-2.274 6.282-2.274 6.391 0 10.29 3.682 10.29 10.019v16.463c0 0.434-0.271 0.704-0.704 0.704h-7.203c-0.434 0-0.704-0.271-0.704-0.704V64.275c0-2.22-1.137-3.467-3.032-3.467 -2.601 0-4.062 1.896-4.062 5.525v13.322c0 0.434-0.271 0.704-0.703 0.704h-7.202c-0.434 0-0.705-0.271-0.705-0.704V54.474c0-0.434 0.271-0.704 0.705-0.704h3.845c0.378 0 0.649 0.162 0.812 0.488L44.976 55.395zM77.267 91.679c-0.163 0.379-0.434 0.542-0.812 0.542h-7.258c-0.542 0-0.758-0.326-0.542-0.812l1.951-5.254c1.841-4.981 1.191-8.558-1.299-15.326l-6.012-16.246c-0.218-0.487 0-0.812 0.542-0.812h7.418c0.379 0 0.65 0.162 0.812 0.541l2.167 6.12c0.974 2.815 2.112 7.257 2.49 9.911 0.108 0.594 0.866 0.594 0.976-0.056 0.379-2.599 1.516-7.04 2.49-9.855l2.112-6.064c0.163-0.435 0.434-0.597 0.812-0.597h7.419c0.541 0 0.759 0.325 0.541 0.812L77.267 91.679zM110.083 53.77c0.432 0 0.702 0.271 0.702 0.704v6.119c0 0.435-0.271 0.705-0.702 0.705h-6.121v9.856c0 1.406 0.541 2.219 1.409 2.219 0.486 0 0.92-0.053 1.354-0.215 0.435-0.163 0.758-0.108 0.974 0.323l2.546 5.199c0.163 0.381 0.109 0.759-0.216 0.976 -1.3 0.867-3.032 1.299-4.657 1.299 -6.282 0-9.964-3.627-9.964-9.801v-9.856h-2.816c-0.435 0-0.705-0.271-0.705-0.705v-6.119c0-0.434 0.271-0.704 0.705-0.704h2.816v-5.901c0-0.381 0.16-0.652 0.594-0.812l7.15-2.385c0.486-0.161 0.811 0.055 0.811 0.597v8.502H110.083zM123.956 79.656c0 0.434-0.271 0.704-0.705 0.704h-7.147c-0.434 0-0.704-0.271-0.704-0.704V61.298h-2.816c-0.432 0-0.703-0.271-0.703-0.705v-6.119c0-0.434 0.271-0.704 0.703-0.704h10.668c0.434 0 0.705 0.271 0.705 0.704V79.656zM133.156 55.395c0.542 0.812 0.865 0.758 1.733 0 2.111-1.733 4.386-2.22 5.956-2.22 2.274 0 4.82 0.812 6.553 2.436 1.028 0.922 1.625 0.651 2.546-0.054 2.546-2.059 4.602-2.382 6.174-2.382 6.498 0 10.072 3.682 10.072 10.019v16.463c0 0.434-0.271 0.704-0.705 0.704h-7.147c-0.434 0-0.704-0.271-0.704-0.704V64.275c0-2.22-0.812-3.467-2.869-3.467 -2.491 0-3.845 1.896-3.845 5.525v13.322c0 0.434-0.271 0.704-0.705 0.704h-7.147c-0.434 0-0.704-0.271-0.704-0.704V64.167c0-2.111-0.921-3.358-2.872-3.358 -2.598 0-3.789 1.896-3.789 5.525v13.322c0 0.434-0.271 0.704-0.705 0.704h-7.202c-0.435 0-0.705-0.271-0.705-0.704V54.474c0-0.434 0.271-0.704 0.705-0.704h3.845c0.378 0 0.649 0.162 0.812 0.488L133.156 55.395zM188.72 72.561c0.434-0.107 0.705 0.056 0.812 0.489l1.518 5.631c0.107 0.488-0.11 0.759-0.542 0.867l-3.357 0.812c-1.896 0.434-3.737 0.595-5.146 0.595 -8.881 0-13.701-5.359-13.701-13.863 0-8.558 4.929-13.917 13.433-13.917 6.821 0 10.776 3.466 10.776 9.422 0 4.603-3.792 7.366-10.237 7.366h-5.468c0.595 2.166 2.328 3.682 5.197 3.682 1.139 0 2.708-0.216 3.466-0.379L188.72 72.561zM182.275 64.601c1.409 0 2.222-0.757 2.222-1.896 0-1.407-1.138-2.22-3.087-2.22 -2.329 0-4.062 1.299-4.767 4.115H182.275z"/> <path fill="#15639A" d="M202.928 79.818c-0.974 5.415-3.736 9.586-10.072 12.294l-1.406 0.595c-0.435 0.163-0.76 0.055-0.921-0.379l-2.274-6.066c-0.11-0.432 0-0.758 0.432-0.92l0.92-0.379c2.709-1.191 4.389-3.304 4.82-5.741l3.143-17.924h-2.709c-0.486 0-0.704-0.271-0.649-0.76l1.028-6.119c0.055-0.432 0.326-0.649 0.758-0.649h10.724c0.486 0 0.704 0.271 0.649 0.76L202.928 79.818zM233.823 64.222c0 6.933-4.061 16.733-15.326 16.733 -7.363 0-11.589-4.224-11.589-11.048 0-7.039 4.17-16.732 15.381-16.732C229.599 53.175 233.823 57.398 233.823 64.222zM215.301 69.312c0 2.599 1.246 4.061 3.466 4.061 4.768 0 6.661-5.414 6.661-8.557 0-2.598-1.191-4.008-3.411-4.008C217.089 60.809 215.301 66.279 215.301 69.312zM247.625 47.868c-0.54 2.924-1.245 4.547-2.491 6.498 -0.379 0.595-0.163 1.299 0.758 0.757 1.733-1.028 3.629-1.948 6.012-1.948 6.661 0 10.289 4.115 10.289 10.776 0 7.419-4.061 17.004-15.597 17.004 -2.815 0-5.198-0.432-7.581-1.462l-4.603-1.949c-0.381-0.163-0.541-0.486-0.488-0.867l6.174-35.091c0.056-0.435 0.326-0.65 0.758-0.65h7.203c0.488 0 0.704 0.27 0.649 0.758L247.625 47.868zM243.943 72.724c1.084 0.435 2.004 0.649 2.925 0.649 5.036 0 6.932-5.414 6.932-8.88 0-2.438-1.083-3.685-3.358-3.685 -3.303 0-5.686 2.764-6.498 7.529l-0.757 4.115L243.943 72.724zM270.537 69.529c-4.276-1.084-6.335-3.032-6.335-6.391 0-4.873 3.14-9.964 11.644-9.964 2.762 0 5.415 0.542 7.256 0.974l2.708 0.704c0.487 0.108 0.649 0.434 0.434 0.867l-2.6 5.631c-0.163 0.381-0.487 0.542-0.921 0.434l-2.438-0.649c-1.407-0.379-3.682-0.649-4.71-0.649 -1.951 0-3.088 0.595-3.088 1.625 0 0.432 0.324 0.865 1.084 1.083l4.439 1.082c4.278 1.083 6.445 3.194 6.445 6.771 0 4.439-2.654 9.909-11.59 9.909 -2.653 0-5.47-0.271-8.394-1.028l-2.869-0.705c-0.489-0.16-0.652-0.486-0.434-0.92l2.706-5.47c0.163-0.379 0.488-0.542 0.867-0.434l2.112 0.541c2.274 0.597 5.524 0.76 6.282 0.76 1.948 0 3.087-0.649 3.087-1.841 0-0.597-0.218-1.03-1.299-1.246L270.537 69.529zM170.712 42.153c-1.702-0.259-2.768-1.841-2.37-3.515l5.384-22.614c0.397-1.674 0.546-3.101 0.326-3.173 -0.216-0.072-0.974 1.151-1.678 2.721L158.99 45.304c-0.706 1.57 0.114 2.688 1.823 2.484l19.809-2.35c1.711-0.204 3.107-0.576 3.107-0.831 0-0.254-1.391-0.676-3.091-0.935L170.712 42.153z"/> <path fill="#94BDD5" d="M113.626 45.516c0 0 0.086-0.521 0.247-1.494 0.079-0.489 0.177-1.09 0.293-1.797 0.059-0.356 0.124-0.739 0.193-1.148 0.116-0.464 0.24-0.959 0.373-1.48 0.272-1.036 0.576-2.185 0.908-3.436 0.426-1.152 0.886-2.398 1.376-3.73 1.086-2.616 2.507-5.479 4.366-8.404 0.904-1.474 2.043-2.877 3.12-4.391 1.231-1.391 2.423-2.903 3.838-4.273 1.418-1.369 2.852-2.794 4.505-4.036 1.564-1.349 3.346-2.48 5.126-3.666 3.671-2.177 7.624-4.224 11.949-5.455 4.28-1.296 8.799-2.15 13.347-2.155l1.7-0.042L165.18 0l0.274 0.002 0.1 0.009 0.394 0.03 0.788 0.06 3.152 0.246c2.305 0.407 4.659 0.717 6.755 1.423 2.175 0.528 4.196 1.469 6.221 2.277 1.927 1.038 3.882 1.963 5.592 3.228 1.809 1.114 3.338 2.544 4.901 3.835 1.399 1.476 2.89 2.804 4.017 4.382 2.496 2.955 4.168 6.228 5.598 9.237 0.591 1.562 1.175 3.055 1.625 4.5 0.358 1.477 0.764 2.859 1.014 4.181 0.193 1.334 0.375 2.58 0.542 3.733 0.092 1.158 0.106 2.228 0.153 3.188 0.154 1.925-0.11 3.427-0.123 4.454 -0.062 1.023-0.098 1.569-0.098 1.569 -0.057 0.923-0.853 1.623-1.775 1.566 -0.892-0.056-1.576-0.801-1.57-1.683l0.002-0.177c0 0 0.004-0.507 0.015-1.456 -0.041-0.949 0.145-2.344-0.094-4.1 -0.09-0.877-0.148-1.853-0.283-2.903 -0.203-1.037-0.426-2.161-0.662-3.36 -0.287-1.186-0.723-2.411-1.104-3.719 -0.47-1.278-1.067-2.584-1.653-3.95 -1.422-2.612-3.028-5.435-5.362-7.911 -1.042-1.338-2.427-2.422-3.691-3.651 -1.434-1.047-2.802-2.231-4.425-3.105 -1.523-1.028-3.267-1.723-4.953-2.546 -1.79-0.59-3.547-1.329-5.443-1.676 -1.879-0.537-3.706-0.633-5.541-0.914L166.4 6.682l-0.79-0.021 -0.396-0.01 -0.098-0.002c0.324 0.008 0.063 0.004 0.122 0.008l-0.045 0.002 -0.181 0.017 -1.458 0.116c-3.89 0.189-7.706 1.13-11.29 2.413 -3.625 1.216-6.893 3.154-9.909 5.14 -1.454 1.09-2.916 2.105-4.175 3.321 -1.346 1.107-2.481 2.381-3.616 3.582 -1.132 1.205-2.051 2.533-3.03 3.73 -0.818 1.317-1.719 2.518-2.398 3.775 -1.409 2.495-2.45 4.894-3.226 7.061 -0.345 1.098-0.668 2.124-0.966 3.073 -0.191 0.91-0.368 1.745-0.527 2.5 -0.083 0.375-0.163 0.729-0.238 1.063 -0.047 0.405-0.092 0.784-0.132 1.136 -0.082 0.711-0.149 1.317-0.204 1.809 -0.109 0.981-0.169 1.505-0.169 1.505 -0.313 2.784-2.822 4.787-5.606 4.474 -2.785-0.312-4.787-2.822-4.476-5.605C113.602 45.691 113.615 45.593 113.626 45.516z"/> </svg>